<?xml version="1.0" encoding="UTF-8" standalone="no"?>
<svg
   version="1.1"
   id="Layer_1"
   x="0px"
   y="0px"
   width="100%"
   viewBox="0 0 1024 784"
   enable-background="new 0 0 1024 784"
   xml:space="preserve"
   sodipodi:docname="logo-soorot-white.svg"
   inkscape:version="1.4 (e7c3feb1, 2024-10-09)"
   xmlns:inkscape="http://www.inkscape.org/namespaces/inkscape"
   xmlns:sodipodi="http://sodipodi.sourceforge.net/DTD/sodipodi-0.dtd"
   xmlns="http://www.w3.org/2000/svg"
   xmlns:svg="http://www.w3.org/2000/svg"><defs
   id="defs3"><linearGradient
     id="swatch3"
     inkscape:swatch="solid"><stop
       style="stop-color:#000000;stop-opacity:1;"
       offset="0"
       id="stop3" /></linearGradient></defs><sodipodi:namedview
   id="namedview3"
   pagecolor="#ffffff"
   bordercolor="#000000"
   borderopacity="0.25"
   inkscape:showpageshadow="2"
   inkscape:pageopacity="0.0"
   inkscape:pagecheckerboard="0"
   inkscape:deskcolor="#d1d1d1"
   inkscape:zoom="1.17"
   inkscape:cx="421.79487"
   inkscape:cy="354.2735"
   inkscape:window-width="1904"
   inkscape:window-height="1012"
   inkscape:window-x="1088"
   inkscape:window-y="25"
   inkscape:window-maximized="0"
   inkscape:current-layer="Layer_1" />


<g
   id="g3"
   transform="translate(-18.639317,-41.244445)"
   style="fill:#f2f2f2;fill-opacity:1"><path
     fill="#000000"
     opacity="1"
     stroke="none"
     d="m 728.039,664.78992 c 3.95349,0.98169 7.48865,1.93841 11.05261,2.77173 4.22614,0.98809 6.98792,3.51806 7.04663,7.87085 0.0596,4.41699 -3.27349,6.32733 -7.07769,7.20257 -6.62384,1.52411 -13.17664,0.5816 -19.79267,-0.56116 -39.91449,-6.89428 -76.16015,-23.5205 -111.73089,-41.93689 -2.17627,-1.12677 -3.81244,-1.18859 -6.01514,-0.14734 -16.52087,7.80945 -34.33478,10.40662 -52.23676,12.18909 -13.07879,1.30213 -26.234,2.0589 -39.40103,1.97022 -49.12375,-0.33081 -96.18109,-10.3238 -140.83285,-30.87561 -25.88556,-11.91431 -47.7442,-29.69764 -68.34867,-49.0376 -21.2293,-19.92652 -40.55096,-41.46051 -54.2733,-67.45758 -3.66574,-6.94473 -6.55589,-14.12619 -8.01385,-21.94138 -2.08481,-11.17538 0.79071,-20.75113 8.18765,-29.13202 5.53258,-6.26855 12.08077,-11.46368 18.28224,-17.01999 10.38056,-9.30072 18.90009,-20.16073 26.62134,-31.67645 3.37454,-5.0329 5.57993,-10.55664 6.17636,-16.68973 0.40604,-4.17541 -1.08365,-6.2641 -5.34335,-7.40237 -17.40582,-4.65131 -33.52536,-12.0242 -47.32744,-23.88065 -14.54272,-12.49273 -20.13388,-27.57733 -13.91908,-46.4263 9.38313,-28.45819 22.74472,-55.09066 37.08438,-81.25013 12.97647,-23.67263 26.51648,-47.02694 43.72873,-68.00141 9.30209,-11.33531 18.45151,-22.79939 28.97891,-33.0598 5.53104,-5.39077 11.59372,-10.02406 18.69412,-13.17846 7.49143,-3.32811 12.85889,0.36817 12.01954,8.47078 -3.07575,29.69191 -4.1998,59.45379 -3.30573,89.28509 1.05579,35.22649 7.10208,69.69014 15.52832,103.84908 10.15054,41.14907 27.84613,78.97821 49.06098,115.40066 17.73232,30.44351 36.47006,60.30051 60.16512,86.40943 48.57465,53.52307 103.92804,97.93261 172.40821,124.06054 20.40552,7.78546 40.87811,15.17981 62.58331,20.19483 z"
     id="path1"
     style="fill:#f2f2f2;fill-opacity:1" /><path
     fill="#000000"
     opacity="1"
     stroke="none"
     d="m 445.5415,200.55109 c -28.93637,-20.38695 -36.24594,-54.56389 -18.28106,-84.25236 12.73315,-21.042573 41.0151,-32.60399 66.62381,-27.235131 26.20169,5.493164 45.58523,26.224991 49.6409,51.210041 5.23761,32.26562 -18.27784,65.84924 -54.75492,70.19708 -15.61059,1.86067 -29.69687,-1.70929 -43.22873,-9.91963 z"
     id="path2"
     style="fill:#f2f2f2;fill-opacity:1" /><path
     fill="#000000"
     opacity="1"
     stroke="none"
     d="m 475.92133,242.15492 c 5.06164,-3.38399 7.68444,-3.06592 11.35684,1.44861 8.33319,10.24414 10.65802,22.31728 10.34396,35.12789 -0.30234,12.3309 -4.27176,23.8428 -8.04452,35.38595 -3.10511,9.50046 -5.97083,19.06689 -6.94687,29.05267 -1.71463,17.54236 5.4519,38.08927 28.0494,47.67188 15.08304,6.39609 31.16935,9.59393 46.59678,14.87375 23.31048,7.97766 46.81378,15.45456 69.58178,24.90784 25.8357,10.72701 37.43811,31.60131 40.50995,58.32897 2.37787,20.69031 -4.66009,39.36887 -12.12536,57.96463 -5.67475,14.13587 -12.47126,27.63825 -22.79828,39.06989 -1.89697,2.09991 -3.66413,4.34772 -6.13526,5.82855 -2.9079,1.74268 -5.73169,1.72583 -8.17419,-0.82837 -2.40131,-2.51117 -2.47272,-5.33764 -0.6908,-8.23114 0.52008,-0.84448 1.15985,-1.63141 1.83374,-2.36267 20.26868,-21.99463 30.99884,-48.79724 34.79944,-77.64783 3.21259,-24.38696 -6.35766,-50.62066 -35.74414,-61.42492 -32.34051,-11.89035 -64.70764,-23.71607 -97.96594,-32.88648 -6.42847,-1.77255 -12.67075,-4.11346 -18.62891,-7.13818 -21.89276,-11.11411 -33.64074,-32.28644 -32.2651,-56.83743 0.7377,-13.16614 4.61126,-25.48084 8.59781,-37.81607 2.71658,-8.40574 5.45739,-16.80872 6.2196,-25.63892 0.89587,-10.37906 -0.73025,-20.27679 -7.21155,-28.85361 -2.28287,-3.02095 -3.43014,-6.07893 -1.15838,-9.99501 z"
     id="path3"
     style="fill:#f2f2f2;fill-opacity:1" /></g>
</svg>
